<svg width="29" height="24" viewBox="0 0 29 24" fill="none" xmlns="http://www.w3.org/2000/svg">
<path d="M22.2731 8.95961C17.9462 8.73835 13.614 8.55971 9.28069 8.5669C7.78965 8.47834 6.2151 8.85676 4.77923 8.36051C3.88769 7.97587 3.14149 6.70922 4.03017 5.90706C4.41018 5.62124 4.8784 5.47777 5.3533 5.50164C6.21147 5.47943 7.07589 5.52013 7.93438 5.53144C9.63616 5.55391 11.3349 5.65314 13.0367 5.67275C16.8807 5.79159 20.8438 5.73819 24.7048 6.03095C24.7457 6.03398 24.7853 6.04606 24.821 6.06631C24.8566 6.08656 24.8873 6.11447 24.9108 6.14802C24.9343 6.18158 24.95 6.21993 24.9569 6.26033C24.9638 6.30072 24.9616 6.34213 24.9505 6.38157C25.7748 7.203 25.1968 8.40372 24.2184 8.77842C23.5905 8.97776 22.927 9.03956 22.2731 8.95961V8.95961ZM21.1143 8.37507C21.2361 8.38392 21.361 8.39674 21.485 8.40862C20.6419 7.75124 19.8318 7.10281 18.9857 6.44351C18.3745 6.42569 17.7633 6.40788 17.152 6.3901C17.9061 6.96193 18.6214 7.58302 19.2934 8.2493C19.9005 8.28978 20.5075 8.3317 21.1143 8.37507V8.37507ZM18.5294 8.19996C17.7293 7.6408 16.9685 7.02733 16.2525 6.36388C15.5903 6.34447 14.9274 6.32271 14.2648 6.3026C15.0034 6.79975 15.6701 7.39618 16.2462 8.0751C17.0078 8.10584 17.7687 8.15306 18.5294 8.19996ZM11.0931 6.19721C11.9105 6.73875 12.6921 7.33251 13.4329 7.97478C14.2724 7.99757 15.1117 8.02703 15.9509 8.06317C15.1123 7.46259 14.2656 6.87426 13.4249 6.27667C12.6473 6.25234 11.87 6.22585 11.0931 6.19721ZM8.19885 6.08423C9.00849 6.61462 9.75813 7.23135 10.4346 7.9236C11.1811 7.92744 11.9275 7.9378 12.6738 7.95469C11.7764 7.44658 10.935 6.84534 10.1636 6.16092C9.50855 6.13604 8.85326 6.11331 8.19885 6.08423V6.08423ZM4.20942 6.65718C4.48675 6.77912 4.73017 6.96682 4.91861 7.20403C5.15541 7.42956 5.36973 7.67757 5.55856 7.94455C6.16302 8.02235 6.77435 8.03145 7.38086 7.97169C7.18472 7.85398 4.62821 6.0713 5.63269 6.13705C6.46964 6.63811 7.2397 7.24323 7.92447 7.93795C8.57215 7.9182 9.21467 7.92504 9.86174 7.92275C9.00826 7.27377 8.1043 6.70141 7.25846 6.04364C6.4635 6.08662 4.34897 5.5853 4.20941 6.65718H4.20942ZM24.6473 6.7071C24.6321 6.68766 24.6211 6.66522 24.6152 6.64126C24.6092 6.61729 24.6084 6.59233 24.6127 6.56802C23.9584 6.59833 23.2989 6.59015 22.6389 6.56762C22.85 6.62663 24.5113 8.31759 23.7853 8.12597C23.1505 7.54657 22.4743 7.01417 21.7621 6.53299C21.1476 6.50501 20.5387 6.48844 19.926 6.47091C20.7097 7.06957 21.4384 7.73683 22.1037 8.46479C22.5615 8.51727 23.0237 8.51827 23.4817 8.46776C24.294 8.35492 25.3222 7.58313 24.6473 6.7071H24.6473Z" fill="#003049"/>
<path d="M19.8343 12.2102C19.9028 10.4575 21.7943 10.1883 23.0785 10.9061C23.1003 10.9129 23.1185 10.9279 23.1294 10.9479C23.1403 10.968 23.143 10.9914 23.1369 11.0134C23.1309 11.0353 23.1165 11.0541 23.0969 11.0657C23.0773 11.0773 23.054 11.0809 23.0318 11.0756C22.2391 11.0097 21.254 10.7624 20.6423 11.4261C20.2221 11.9459 20.5053 12.6281 20.3767 13.2391C20.4189 13.1766 20.4835 13.1327 20.5571 13.1163C20.6308 13.0999 20.7079 13.1124 20.7726 13.1511C21.1072 13.3426 21.4681 13.4843 21.8436 13.5714C22.1177 13.6276 22.5429 13.716 22.779 13.5121C23.017 13.3066 23.0029 12.8804 23.0204 12.5969C23.037 12.2666 23.0449 11.9362 23.0601 11.6058C23.0504 11.4908 23.0598 11.375 23.0877 11.2631C23.0943 11.242 23.1067 11.2233 23.1236 11.2091C23.1404 11.1949 23.161 11.1858 23.1828 11.183C23.2047 11.1801 23.2269 11.1836 23.2468 11.193C23.2668 11.2023 23.2836 11.2173 23.2953 11.2359C23.4096 11.7331 23.451 12.2442 23.4184 12.7533C23.4413 12.9552 23.4215 13.1597 23.3605 13.3535C23.2994 13.5473 23.1984 13.7261 23.0639 13.8784C22.8869 13.9984 22.6868 14.0803 22.4764 14.1187C22.266 14.1571 22.05 14.1513 21.8419 14.1016C21.3595 14.0519 20.8916 13.9079 20.4646 13.6779C20.4241 13.653 20.3901 13.6189 20.3652 13.5784C20.3403 13.5378 20.3254 13.492 20.3215 13.4446C20.2831 13.551 20.2229 13.6482 20.1446 13.7299C19.9864 13.8912 19.6246 13.7832 19.6568 13.5279C19.7605 13.0958 19.82 12.6543 19.8343 12.2102V12.2102Z" fill="#003049"/>
<path d="M14.6759 12.2102C14.7444 10.4575 16.6358 10.1883 17.9201 10.9061C17.9418 10.9129 17.96 10.9279 17.9709 10.9479C17.9818 10.968 17.9845 10.9914 17.9785 11.0134C17.9724 11.0353 17.9581 11.0541 17.9385 11.0657C17.9189 11.0773 17.8955 11.0809 17.8733 11.0756C17.0807 11.0097 16.0956 10.7624 15.4839 11.4261C15.0637 11.9459 15.3468 12.6281 15.2182 13.2391C15.2605 13.1766 15.3251 13.1327 15.3987 13.1163C15.4723 13.0999 15.5494 13.1124 15.6142 13.1511C15.9488 13.3426 16.3096 13.4843 16.6852 13.5714C16.9593 13.6276 17.3845 13.716 17.6205 13.5121C17.8585 13.3066 17.8444 12.8804 17.8619 12.5969C17.8785 12.2666 17.8864 11.9362 17.9016 11.6058C17.892 11.4908 17.9013 11.375 17.9293 11.2631C17.9358 11.242 17.9483 11.2233 17.9651 11.2091C17.982 11.1949 18.0025 11.1858 18.0244 11.183C18.0462 11.1801 18.0685 11.1836 18.0884 11.193C18.1083 11.2023 18.1252 11.2173 18.1369 11.2359C18.2511 11.7331 18.2926 12.2442 18.26 12.7533C18.2828 12.9552 18.2631 13.1597 18.202 13.3535C18.141 13.5473 18.0399 13.7261 17.9054 13.8784C17.7284 13.9984 17.5284 14.0803 17.318 14.1187C17.1076 14.1571 16.8915 14.1513 16.6835 14.1016C16.2011 14.0519 15.7331 13.9079 15.3062 13.6779C15.2657 13.653 15.2316 13.6189 15.2068 13.5784C15.1819 13.5378 15.1669 13.492 15.163 13.4446C15.1247 13.551 15.0644 13.6482 14.9862 13.7299C14.828 13.8912 14.4661 13.7832 14.4983 13.5279C14.602 13.0958 14.6615 12.6543 14.6759 12.2102V12.2102Z" fill="#003049"/>
<path d="M9.51745 12.2102C9.58592 10.4575 11.4774 10.1883 12.7616 10.9061C12.7834 10.9129 12.8016 10.9279 12.8125 10.9479C12.8234 10.968 12.8261 10.9914 12.82 11.0134C12.814 11.0353 12.7996 11.0541 12.78 11.0657C12.7604 11.0773 12.7371 11.0809 12.7149 11.0756C11.9223 11.0097 10.9371 10.7624 10.3254 11.4261C9.90525 11.9459 10.1884 12.6281 10.0598 13.2391C10.102 13.1766 10.1666 13.1327 10.2402 13.1163C10.3139 13.0999 10.391 13.1124 10.4557 13.1511C10.7903 13.3426 11.1512 13.4843 11.5268 13.5714C11.8008 13.6276 12.226 13.716 12.4621 13.5121C12.7001 13.3066 12.686 12.8804 12.7035 12.5969C12.7201 12.2666 12.728 11.9362 12.7432 11.6058C12.7335 11.4908 12.7429 11.375 12.7708 11.2631C12.7774 11.242 12.7898 11.2233 12.8067 11.2091C12.8235 11.1949 12.8441 11.1858 12.8659 11.183C12.8878 11.1801 12.91 11.1836 12.93 11.193C12.9499 11.2023 12.9667 11.2173 12.9784 11.2359C13.0927 11.7331 13.1341 12.2442 13.1015 12.7533C13.1244 12.9552 13.1046 13.1597 13.0436 13.3535C12.9825 13.5473 12.8815 13.7261 12.747 13.8784C12.57 13.9984 12.3699 14.0803 12.1595 14.1187C11.9491 14.1571 11.7331 14.1513 11.5251 14.1016C11.0426 14.0519 10.5747 13.9079 10.1477 13.6779C10.1072 13.653 10.0732 13.6189 10.0483 13.5784C10.0234 13.5378 10.0085 13.492 10.0046 13.4446C9.96621 13.551 9.90596 13.6482 9.8277 13.7299C9.66951 13.8912 9.30766 13.7832 9.33986 13.5279C9.44359 13.0958 9.50309 12.6543 9.51745 12.2102V12.2102Z" fill="#003049"/>
<path d="M4.359 12.2102C4.42747 10.4575 6.31892 10.1883 7.6032 10.9061C7.62493 10.9129 7.64315 10.9279 7.65404 10.9479C7.66493 10.968 7.66762 10.9914 7.66157 11.0134C7.65551 11.0353 7.64117 11.0541 7.62156 11.0657C7.60196 11.0773 7.57861 11.0809 7.55644 11.0756C6.76381 11.0097 5.77866 10.7624 5.16697 11.4261C4.7468 11.9459 5.02993 12.6281 4.90132 13.2391C4.94359 13.1766 5.00817 13.1327 5.0818 13.1163C5.15543 13.0999 5.23254 13.1124 5.29729 13.1511C5.63189 13.3426 5.99271 13.4843 6.3683 13.5714C6.6424 13.6276 7.06759 13.716 7.30365 13.5121C7.54164 13.3066 7.52753 12.8804 7.54503 12.5969C7.56162 12.2666 7.56953 11.9362 7.58473 11.6058C7.57508 11.4908 7.58443 11.375 7.6124 11.2631C7.61893 11.242 7.63136 11.2233 7.64822 11.2091C7.66508 11.1949 7.68565 11.1858 7.7075 11.183C7.72935 11.1801 7.75157 11.1836 7.77151 11.193C7.79145 11.2023 7.80828 11.2173 7.82 11.2359C7.93422 11.7331 7.97568 12.2442 7.94308 12.7533C7.96594 12.9552 7.9462 13.1597 7.88513 13.3535C7.82406 13.5473 7.72303 13.7261 7.58854 13.8784C7.41154 13.9984 7.21147 14.0803 7.00109 14.1187C6.7907 14.1571 6.57461 14.1513 6.3666 14.1016C5.8842 14.0519 5.41624 13.9079 4.98929 13.6779C4.9488 13.653 4.91474 13.6189 4.88987 13.5784C4.865 13.5378 4.85001 13.492 4.84612 13.4446C4.80777 13.551 4.74752 13.6482 4.66926 13.7299C4.51106 13.8912 4.14921 13.7832 4.18141 13.5279C4.28514 13.0958 4.34464 12.6543 4.359 12.2102V12.2102Z" fill="#003049"/>
<path d="M19.8343 16.8997C19.9028 15.1469 21.7943 14.8777 23.0785 15.5955C23.1003 15.6024 23.1185 15.6174 23.1294 15.6374C23.1403 15.6574 23.143 15.6809 23.1369 15.7028C23.1309 15.7248 23.1165 15.7436 23.0969 15.7552C23.0773 15.7668 23.054 15.7703 23.0318 15.7651C22.2391 15.6991 21.254 15.4518 20.6423 16.1156C20.2221 16.6353 20.5053 17.3176 20.3767 17.9285C20.4189 17.866 20.4835 17.8221 20.5571 17.8058C20.6308 17.7894 20.7079 17.8018 20.7726 17.8405C21.1072 18.0321 21.4681 18.1737 21.8436 18.2608C22.1177 18.317 22.5429 18.4055 22.779 18.2016C23.017 17.996 23.0029 17.5698 23.0204 17.2864C23.037 16.9561 23.0449 16.6257 23.0601 16.2953C23.0504 16.1803 23.0598 16.0645 23.0877 15.9525C23.0943 15.9315 23.1067 15.9127 23.1236 15.8985C23.1404 15.8843 23.161 15.8753 23.1828 15.8724C23.2047 15.8696 23.2269 15.873 23.2468 15.8824C23.2668 15.8918 23.2836 15.9067 23.2953 15.9254C23.4096 16.4226 23.451 16.9337 23.4184 17.4428C23.4413 17.6447 23.4215 17.8491 23.3605 18.0429C23.2994 18.2367 23.1984 18.4155 23.0639 18.5678C22.8869 18.6879 22.6868 18.7697 22.4764 18.8082C22.266 18.8466 22.05 18.8408 21.8419 18.7911C21.3595 18.7413 20.8916 18.5974 20.4646 18.3674C20.4241 18.3425 20.3901 18.3083 20.3652 18.2678C20.3403 18.2273 20.3254 18.1815 20.3215 18.1341C20.2831 18.2405 20.2229 18.3377 20.1446 18.4194C19.9864 18.5807 19.6246 18.4727 19.6568 18.2173C19.7605 17.7853 19.82 17.3438 19.8343 16.8997V16.8997Z" fill="#003049"/>
<path d="M14.6759 16.8997C14.7444 15.1469 16.6358 14.8777 17.9201 15.5955C17.9418 15.6024 17.96 15.6174 17.9709 15.6374C17.9818 15.6574 17.9845 15.6809 17.9785 15.7028C17.9724 15.7248 17.9581 15.7436 17.9385 15.7552C17.9189 15.7668 17.8955 15.7703 17.8733 15.7651C17.0807 15.6991 16.0956 15.4518 15.4839 16.1156C15.0637 16.6353 15.3468 17.3176 15.2182 17.9285C15.2605 17.866 15.3251 17.8221 15.3987 17.8058C15.4723 17.7894 15.5494 17.8018 15.6142 17.8405C15.9488 18.0321 16.3096 18.1737 16.6852 18.2608C16.9593 18.317 17.3845 18.4055 17.6205 18.2016C17.8585 17.996 17.8444 17.5698 17.8619 17.2864C17.8785 16.9561 17.8864 16.6257 17.9016 16.2953C17.892 16.1803 17.9013 16.0645 17.9293 15.9525C17.9358 15.9315 17.9483 15.9127 17.9651 15.8985C17.982 15.8843 18.0025 15.8753 18.0244 15.8724C18.0462 15.8696 18.0685 15.873 18.0884 15.8824C18.1083 15.8918 18.1252 15.9067 18.1369 15.9254C18.2511 16.4226 18.2926 16.9337 18.26 17.4428C18.2828 17.6447 18.2631 17.8491 18.202 18.0429C18.141 18.2367 18.0399 18.4155 17.9054 18.5678C17.7284 18.6879 17.5284 18.7697 17.318 18.8082C17.1076 18.8466 16.8915 18.8408 16.6835 18.7911C16.2011 18.7413 15.7331 18.5974 15.3062 18.3674C15.2657 18.3425 15.2316 18.3083 15.2068 18.2678C15.1819 18.2273 15.1669 18.1815 15.163 18.1341C15.1247 18.2405 15.0644 18.3377 14.9862 18.4194C14.828 18.5807 14.4661 18.4727 14.4983 18.2173C14.602 17.7853 14.6615 17.3438 14.6759 16.8997V16.8997Z" fill="#003049"/>
<path d="M9.51745 16.8997C9.58592 15.1469 11.4774 14.8777 12.7616 15.5955C12.7834 15.6024 12.8016 15.6174 12.8125 15.6374C12.8234 15.6574 12.8261 15.6809 12.82 15.7028C12.814 15.7248 12.7996 15.7436 12.78 15.7552C12.7604 15.7668 12.7371 15.7703 12.7149 15.7651C11.9223 15.6991 10.9371 15.4518 10.3254 16.1156C9.90525 16.6353 10.1884 17.3176 10.0598 17.9285C10.102 17.866 10.1666 17.8221 10.2402 17.8058C10.3139 17.7894 10.391 17.8018 10.4557 17.8405C10.7903 18.0321 11.1512 18.1737 11.5268 18.2608C11.8008 18.317 12.226 18.4055 12.4621 18.2016C12.7001 17.996 12.686 17.5698 12.7035 17.2864C12.7201 16.9561 12.728 16.6257 12.7432 16.2953C12.7335 16.1803 12.7429 16.0645 12.7708 15.9525C12.7774 15.9315 12.7898 15.9127 12.8067 15.8985C12.8235 15.8843 12.8441 15.8753 12.8659 15.8724C12.8878 15.8696 12.91 15.873 12.93 15.8824C12.9499 15.8918 12.9667 15.9067 12.9784 15.9254C13.0927 16.4226 13.1341 16.9337 13.1015 17.4428C13.1244 17.6447 13.1046 17.8491 13.0436 18.0429C12.9825 18.2367 12.8815 18.4155 12.747 18.5678C12.57 18.6879 12.3699 18.7697 12.1595 18.8082C11.9491 18.8466 11.7331 18.8408 11.5251 18.7911C11.0426 18.7413 10.5747 18.5974 10.1477 18.3674C10.1072 18.3425 10.0732 18.3083 10.0483 18.2678C10.0234 18.2273 10.0085 18.1815 10.0046 18.1341C9.96621 18.2405 9.90596 18.3377 9.8277 18.4194C9.66951 18.5807 9.30766 18.4727 9.33986 18.2173C9.44359 17.7853 9.50309 17.3438 9.51745 16.8997V16.8997Z" fill="#003049"/>
<path d="M4.359 16.8997C4.42747 15.1469 6.31892 14.8777 7.6032 15.5955C7.62493 15.6024 7.64315 15.6174 7.65404 15.6374C7.66493 15.6574 7.66762 15.6809 7.66157 15.7028C7.65551 15.7248 7.64117 15.7436 7.62156 15.7552C7.60196 15.7668 7.57861 15.7703 7.55644 15.7651C6.76381 15.6991 5.77866 15.4518 5.16697 16.1156C4.7468 16.6353 5.02993 17.3176 4.90132 17.9285C4.94359 17.866 5.00817 17.8221 5.0818 17.8058C5.15543 17.7894 5.23254 17.8018 5.29729 17.8405C5.63189 18.0321 5.99271 18.1737 6.3683 18.2608C6.6424 18.317 7.06759 18.4055 7.30365 18.2016C7.54164 17.996 7.52753 17.5698 7.54503 17.2864C7.56162 16.9561 7.56953 16.6257 7.58473 16.2953C7.57508 16.1803 7.58443 16.0645 7.6124 15.9525C7.61893 15.9315 7.63136 15.9127 7.64822 15.8985C7.66508 15.8843 7.68565 15.8753 7.7075 15.8724C7.72935 15.8696 7.75157 15.873 7.77151 15.8824C7.79145 15.8918 7.80828 15.9067 7.82 15.9254C7.93422 16.4226 7.97568 16.9337 7.94308 17.4428C7.96594 17.6447 7.9462 17.8491 7.88513 18.0429C7.82406 18.2367 7.72303 18.4155 7.58854 18.5678C7.41154 18.6879 7.21147 18.7697 7.00109 18.8082C6.7907 18.8466 6.57461 18.8408 6.3666 18.7911C5.8842 18.7413 5.41624 18.5974 4.98929 18.3674C4.9488 18.3425 4.91474 18.3083 4.88987 18.2678C4.865 18.2273 4.85001 18.1815 4.84612 18.1341C4.80777 18.2405 4.74752 18.3377 4.66926 18.4194C4.51106 18.5807 4.14921 18.4727 4.18141 18.2173C4.28514 17.7853 4.34464 17.3438 4.359 16.8997V16.8997Z" fill="#003049"/>
<path d="M0.535769 7.02115C0.488957 6.0505 0.515478 4.33333 1.89699 4.4808C1.91381 4.21567 1.73174 3.75125 2.04523 3.62817C2.22516 1.53374 5.30894 2.08452 6.80784 2.00365C7.38361 -0.505369 10.4317 -0.808335 10.9058 1.95502C11.5724 1.94904 12.239 1.95041 12.9056 1.94751C13.5588 -0.524409 16.5323 -0.768263 17.0015 1.95061C17.6676 1.95642 18.3337 1.96525 18.9997 1.97711C19.6534 -0.606252 22.7478 -0.742648 23.1174 2.08077C24.9779 2.19339 27.6812 2.10127 28.4164 4.22438C28.521 4.80507 28.5263 5.39932 28.432 5.98179C28.3733 6.78988 28.3789 7.60526 28.3599 8.41518C28.2838 11.6527 28.2288 14.891 28.2295 18.1295C28.335 20.1419 28.4027 21.8187 25.936 22.1416C25.9744 23.3288 24.7629 23.9462 23.7019 23.9938C22.0756 23.9928 20.4479 23.7565 18.8216 23.6757C15.5599 23.4381 12.2982 23.2006 9.03652 22.9631C7.40636 22.8444 5.77376 22.7614 4.144 22.6359C3.03245 22.5503 1.63929 22.491 0.946497 21.4667C0.237901 20.2522 0.603397 18.7462 0.525588 17.4048C0.53621 13.9436 0.489004 10.482 0.535769 7.02115V7.02115ZM10.1354 1.53083C10.0539 1.24809 9.87951 1.00109 9.64029 0.829773C9.40107 0.658455 9.11106 0.572836 8.81716 0.586761C8.08787 0.708484 7.74251 1.43202 7.39848 1.99661C8.34756 1.98367 9.29665 1.97242 10.2458 1.96285C10.2219 1.81585 10.185 1.67127 10.1354 1.53083V1.53083ZM16.2319 1.53083C16.1504 1.24809 15.976 1.00109 15.7368 0.829773C15.4975 0.658455 15.2075 0.572836 14.9136 0.586761C14.2105 0.704793 13.8521 1.39013 13.5288 1.94638C14.465 1.94431 15.4011 1.93447 16.3373 1.94357C16.314 1.80324 16.2787 1.66516 16.2319 1.53083V1.53083ZM22.3283 1.53083C22.2469 1.24809 22.0724 1.00109 21.8332 0.829773C21.594 0.658455 21.304 0.572836 21.0101 0.586761C20.2835 0.708118 19.9367 1.4276 19.5949 1.99143C20.5494 2.00845 21.4928 2.04298 22.4506 2.06225C22.4291 1.88122 22.3881 1.70304 22.3283 1.53083V1.53083ZM27.5486 20.3785C27.7515 18.9605 27.5398 17.481 27.6208 16.0477C27.6453 13.1561 27.7082 10.2651 27.7851 7.37444C27.8017 6.75052 27.8265 6.13264 27.8762 5.51068C27.9323 4.80959 27.9186 4.16759 27.3741 3.65071C26.2776 2.62184 24.5116 2.77612 23.1234 2.69347C23.0456 4.17289 21.6449 5.64685 20.1071 5.13793C20.0154 5.22877 19.9064 5.30037 19.7866 5.34851C19.6669 5.39665 19.5387 5.42037 19.4096 5.41826C17.7675 5.58131 17.548 3.53989 19.0444 3.08866C19.2861 2.99365 19.5494 2.96745 19.8051 3.01297C20.0608 3.05849 20.2988 3.17395 20.4929 3.34653C20.5737 3.42423 20.6373 3.51809 20.6794 3.62199C20.7215 3.72588 20.7413 3.83749 20.7375 3.94954C20.7336 4.06159 20.7062 4.17158 20.657 4.27233C20.6078 4.37308 20.538 4.46234 20.452 4.5343C21.5424 4.75953 22.425 3.68538 22.4574 2.66536C20.6507 2.58738 18.8433 2.52996 17.0352 2.49308C17.0525 4.04232 15.6295 5.66838 14.0106 5.13793C13.9189 5.22877 13.81 5.30037 13.6902 5.34851C13.5704 5.39665 13.4422 5.42037 13.3131 5.41826C11.6711 5.58131 11.4515 3.53989 12.948 3.08866C13.1897 2.99365 13.453 2.96745 13.7086 3.01297C13.9643 3.05849 14.2024 3.17395 14.3964 3.34653C14.4772 3.42423 14.5408 3.51809 14.5829 3.62199C14.6251 3.72588 14.6449 3.83749 14.641 3.94954C14.6371 4.06159 14.6097 4.17158 14.5605 4.27233C14.5113 4.37308 14.4415 4.46234 14.3555 4.5343C15.5276 4.77102 16.4047 3.55635 16.3809 2.4788C14.5678 2.44591 12.7544 2.4326 10.941 2.42831C10.9906 3.99838 9.559 5.67512 7.91418 5.13793C7.82246 5.22877 7.71351 5.30037 7.59372 5.34851C7.47394 5.39665 7.34574 5.42037 7.21666 5.41826C5.57461 5.58131 5.3551 3.53989 6.85153 3.08866C7.09322 2.99365 7.3565 2.96745 7.61217 3.01297C7.86785 3.05849 8.10591 3.17395 8.29996 3.34653C8.38079 3.42423 8.44434 3.51809 8.48648 3.62199C8.52862 3.72588 8.54841 3.83749 8.54455 3.94954C8.54069 4.06159 8.51328 4.17158 8.46409 4.27233C8.4149 4.37308 8.34504 4.46234 8.25906 4.5343C9.45264 4.77355 10.331 3.52126 10.2826 2.4273C8.40768 2.42946 6.53118 2.40657 4.65645 2.43832C3.65895 2.45684 2.51091 2.56114 2.3898 3.66656C2.43711 3.69484 2.47705 3.73391 2.50637 3.78058C2.53569 3.82724 2.55356 3.88018 2.55851 3.93507C2.94529 8.29164 2.92662 12.6747 2.50275 17.0278C2.38848 18.2454 1.80944 20.3965 3.51804 20.7285C6.33843 20.9537 9.19684 20.9594 12.0303 21.1116C14.9173 21.2262 17.8045 21.3369 20.6918 21.4439C22.0567 21.4959 23.4287 21.5942 24.7946 21.5928C25.7449 21.5918 27.2654 21.5118 27.5486 20.3785V20.3785ZM19.5779 4.01253C19.7466 4.12047 19.8768 4.25917 20.0369 4.36642C20.0947 4.33088 20.1443 4.28339 20.1822 4.22714C20.2202 4.17089 20.2457 4.10719 20.257 4.04028C20.2683 3.97338 20.2652 3.90483 20.2479 3.83922C20.2306 3.77361 20.1995 3.71246 20.1566 3.65985C20.0365 3.53596 19.8807 3.45264 19.711 3.42152C19.5413 3.3904 19.3661 3.41302 19.2099 3.48624C18.5912 3.63892 18.1714 4.47499 18.8387 4.85747C18.9389 4.92744 19.0589 4.96333 19.1811 4.95983C19.3032 4.95632 19.421 4.91362 19.517 4.83803C19.3443 4.71727 19.2133 4.54596 19.1419 4.34766C19.1277 4.29099 19.1304 4.23142 19.1496 4.17625C19.1688 4.12108 19.2037 4.07273 19.25 4.03713C19.2963 4.00153 19.352 3.98023 19.4102 3.97586C19.4685 3.97149 19.5268 3.98424 19.5779 4.01253V4.01253ZM13.4814 4.01253C13.6501 4.12047 13.7804 4.25917 13.9404 4.36642C13.9982 4.33088 14.0478 4.28339 14.0857 4.22714C14.1237 4.17089 14.1492 4.10719 14.1605 4.04028C14.1719 3.97338 14.1688 3.90483 14.1515 3.83922C14.1342 3.77361 14.103 3.71246 14.0602 3.65985C13.9401 3.53596 13.7843 3.45264 13.6146 3.42152C13.4448 3.3904 13.2696 3.41302 13.1134 3.48624C12.4947 3.63892 12.075 4.47499 12.7422 4.85747C12.8424 4.92744 12.9625 4.96333 13.0846 4.95983C13.2068 4.95632 13.3246 4.91362 13.4206 4.83803C13.2478 4.71727 13.1168 4.54596 13.0454 4.34766C13.0312 4.29099 13.0339 4.23142 13.0531 4.17625C13.0723 4.12108 13.1072 4.07273 13.1535 4.03713C13.1998 4.00153 13.2555 3.98023 13.3138 3.97586C13.372 3.97149 13.4303 3.98424 13.4814 4.01253V4.01253ZM7.38493 4.01253C7.55363 4.12047 7.6839 4.25917 7.84399 4.36642C7.90178 4.33088 7.95132 4.28339 7.98928 4.22714C8.02723 4.17089 8.05273 4.10719 8.06407 4.04028C8.0754 3.97338 8.07231 3.90483 8.055 3.83922C8.03769 3.77361 8.00656 3.71246 7.9637 3.65985C7.8436 3.53596 7.68782 3.45264 7.5181 3.42152C7.34838 3.3904 7.17317 3.41302 7.01693 3.48624C6.39823 3.63892 5.9785 4.47499 6.64578 4.85747C6.74597 4.92744 6.86601 4.96333 6.98816 4.95983C7.11031 4.95632 7.22809 4.91362 7.32411 4.83803C7.15139 4.71727 7.02033 4.54596 6.94897 4.34766C6.93477 4.29099 6.93744 4.23142 6.95664 4.17625C6.97584 4.12108 7.01074 4.07273 7.05705 4.03713C7.10336 4.00153 7.15907 3.98023 7.21732 3.97586C7.27557 3.97149 7.33383 3.98424 7.38493 4.01253V4.01253ZM1.09459 6.67504C1.19136 10.0968 1.18307 13.5207 1.23388 16.9433C1.31771 18.1769 1.10095 19.4752 1.40251 20.6799C1.83228 21.9075 3.57209 21.7517 4.60996 21.827C5.93063 21.9228 7.25012 22.0322 8.57058 22.1302C12.8408 22.4409 17.1135 22.7186 21.3843 23.0216C22.3035 23.0856 24.9453 23.6124 25.1293 22.206C18.4911 22.0866 11.8582 21.6842 5.22227 21.4686C0.17288 21.6565 1.97292 18.3756 2.00131 14.9635C2.18448 11.6064 2.15826 8.24111 1.92278 4.88725C0.995109 4.67575 1.07709 6.11259 1.09459 6.67504V6.67504Z" fill="#003049"/>
</svg>
