<svg width="27" height="24" viewBox="0 0 27 24" fill="none" xmlns="http://www.w3.org/2000/svg">
<path d="M1 1H5.4L7.35556 15.1778H24.4667L25.9333 4.91111H8.33333L9.45778 12.7333" stroke="#003049" stroke-width="1.3" stroke-linecap="round" stroke-linejoin="round"/>
<path d="M13.2222 20.5554H16.1555" stroke="#003049" stroke-width="1.3" stroke-linecap="round" stroke-linejoin="round"/>
<path d="M21.0445 22.9997C22.3946 22.9997 23.489 21.9053 23.489 20.5553C23.489 19.2053 22.3946 18.1108 21.0445 18.1108C19.6945 18.1108 18.6001 19.2053 18.6001 20.5553C18.6001 21.9053 19.6945 22.9997 21.0445 22.9997Z" stroke="#003049" stroke-width="1.3" stroke-linecap="round" stroke-linejoin="round"/>
<path d="M10.7777 22.9997C12.1277 22.9997 13.2221 21.9053 13.2221 20.5553C13.2221 19.2053 12.1277 18.1108 10.7777 18.1108C9.42767 18.1108 8.33325 19.2053 8.33325 20.5553C8.33325 21.9053 9.42767 22.9997 10.7777 22.9997Z" stroke="#003049" stroke-width="1.3" stroke-linecap="round" stroke-linejoin="round"/>
</svg>