<svg width="35" height="35" viewBox="0 0 35 35" fill="none" xmlns="http://www.w3.org/2000/svg">
<path d="M29.8743 29.8744C26.569 33.1797 22.1744 35 17.5 35C12.8255 35 8.4309 33.1797 5.12559 29.8744C1.82034 26.5691 0 22.1745 0 17.5C0 12.8255 1.82034 8.4309 5.12559 5.12559C8.4309 1.82034 12.8255 0 17.5 0C22.1744 0 26.569 1.82034 29.8743 5.12559C33.1797 8.4309 35 12.8256 35 17.5C35 22.1744 33.1797 26.5691 29.8743 29.8744ZM17.5 2.05078C8.98126 2.05078 2.05078 8.98126 2.05078 17.5C2.05078 26.0187 8.98126 32.9492 17.5 32.9492C26.0187 32.9492 32.9492 26.0187 32.9492 17.5C32.9492 8.98126 26.0187 2.05078 17.5 2.05078Z" fill="white"/>
<path d="M20.7949 25.5852C20.2286 25.5852 19.7695 25.1261 19.7695 24.5598V10.4397C19.7695 9.87343 20.2286 9.41432 20.7949 9.41432C21.3612 9.41432 21.8203 9.87343 21.8203 10.4397V24.5598C21.8203 25.1261 21.3612 25.5852 20.7949 25.5852Z" fill="white"/>
<path d="M14.2051 25.5852C13.6388 25.5852 13.1797 25.1261 13.1797 24.5598V10.4397C13.1797 9.87343 13.6388 9.41432 14.2051 9.41432C14.7714 9.41432 15.2305 9.87343 15.2305 10.4397V24.5598C15.2305 25.1261 14.7714 25.5852 14.2051 25.5852Z" fill="white"/>
</svg>
