<svg width="35" height="35" viewBox="0 0 35 35" fill="none" xmlns="http://www.w3.org/2000/svg">
<path d="M29.8743 29.8744C26.569 33.1797 22.1744 35 17.5 35C12.8255 35 8.4309 33.1797 5.12559 29.8744C1.82034 26.5691 0 22.1745 0 17.5C0 12.8255 1.82034 8.4309 5.12559 5.12559C8.4309 1.82034 12.8255 0 17.5 0C22.1744 0 26.569 1.82034 29.8743 5.12559C33.1797 8.4309 35 12.8256 35 17.5C35 22.1744 33.1797 26.5691 29.8743 29.8744ZM17.5 2.05078C8.98126 2.05078 2.05078 8.98126 2.05078 17.5C2.05078 26.0187 8.98126 32.9492 17.5 32.9492C26.0187 32.9492 32.9492 26.0187 32.9492 17.5C32.9492 8.98126 26.0187 2.05078 17.5 2.05078Z" fill="white"/>
<path d="M25.6666 17.4999L13.4166 24.5725V10.4274L25.6666 17.4999Z" fill="white"/>
</svg>
