<svg width="161" height="57" viewBox="0 0 161 57" fill="none" xmlns="http://www.w3.org/2000/svg">
<path d="M81.252 14.1723L79.9573 13.2659C78.6738 12.3996 77.5107 11.3672 76.4984 10.1954C75.7401 9.33538 75.2852 8.25014 75.2036 7.10647C75.2125 6.40688 75.3668 5.71679 75.6566 5.07997C75.9463 4.44314 76.3652 3.87348 76.8868 3.40711C78.2369 2.37587 79.7922 1.64584 81.4482 1.26616C83.1041 0.886476 84.8221 0.865958 86.4866 1.20598C88.5914 1.45631 90.612 2.18057 92.3964 3.32432C94.1809 4.46806 95.6829 6.00151 96.7894 7.80935C97.926 10.0456 98.4701 12.5359 98.3697 15.0424C98.2693 17.5489 97.5278 19.9877 96.216 22.1259C94.8242 24.5298 92.8448 26.5409 90.4634 27.9709C89.2038 28.7029 87.8547 29.2687 86.4496 29.6541C85.0202 30.011 83.5569 30.2156 82.0844 30.2645C75.9989 30.505 69.9505 28.0819 64.2904 24.9374C58.6304 21.7929 53.0629 17.9641 47.1069 14.3757L44.8688 13.007L42.5752 11.7862L37.7845 9.32609C34.4731 7.82332 31.0305 6.62833 27.5003 5.7562C23.8686 4.88961 20.1191 4.62714 16.4022 4.97934C15.4728 5.08924 14.552 5.26228 13.6461 5.49725L12.2774 5.7932L10.9641 6.31111C10.0816 6.6413 9.21723 7.01793 8.37454 7.43941C7.54291 7.87735 6.76144 8.40453 6.04394 9.01165C4.54414 10.1678 3.32215 11.6451 2.46758 13.335C1.61301 15.0249 1.14753 16.8847 1.10529 18.778C1.25095 20.702 1.8248 22.5692 2.78489 24.243C3.74498 25.9167 5.06702 27.3547 6.65433 28.4518C9.89848 30.8266 13.6235 32.4618 17.5675 33.2425C21.5816 34.1007 25.6709 34.5591 29.7754 34.6112C31.847 34.7037 33.8817 34.5003 35.9903 34.4078C38.0989 34.3153 40.2076 34.2413 42.2792 34.0378L48.4942 33.039L51.6201 32.5026L54.6906 31.7257L60.8315 30.1165C62.9217 29.5431 64.7714 28.8032 66.8615 28.0634C70.9069 26.6917 74.8451 25.0224 78.644 23.0692C86.3202 19.2404 93.8114 14.8936 101.636 11.1203C109.393 7.13373 117.734 4.40533 126.347 3.03717C130.665 2.51824 135.038 2.70566 139.295 3.59207C143.629 4.39694 147.738 6.13237 151.337 8.6787C154.88 11.2531 157.583 14.8185 159.105 18.9259C159.83 20.9855 160.135 23.1696 160.002 25.349C159.869 27.5285 159.299 29.6591 158.328 31.6148C156.43 35.4798 153.431 38.6973 149.709 40.8632C146.153 42.976 142.29 44.5235 138.259 45.4504C130.412 47.286 122.284 47.5812 114.324 46.3197C110.502 45.679 106.775 44.5668 103.226 43.0088L100.563 41.751C99.6379 41.2701 98.9535 40.7152 98.1396 40.2158C96.5859 39.1245 94.9397 38.2366 93.5154 37.0158C90.6669 34.5558 87.7629 32.1882 85.1179 29.8206C83.7676 28.5998 82.3249 27.564 80.9376 26.4726C79.5816 25.3569 78.1677 24.3135 76.7018 23.3467C70.9308 19.6473 64.5864 16.7063 58.205 16.5029C51.8236 16.2994 45.5532 19.4254 43.4075 24.8819C42.4145 27.4579 41.944 30.2057 42.0234 32.9653C42.1027 35.7249 42.7305 38.4411 43.8699 40.9557C45.8261 45.4372 48.9978 49.2816 53.0259 52.0538C56.4528 54.4146 60.4529 55.8076 64.6049 56.0861C67.5186 56.3541 70.4547 55.9366 73.1782 54.8671C75.9018 53.7976 78.3374 52.1057 80.2902 49.9266C81.5207 48.2559 82.2404 46.2641 82.3618 44.1926C82.2669 46.2717 81.5661 48.2777 80.3457 49.9636C78.4026 52.1816 75.9661 53.9127 73.2323 55.0178C70.4985 56.1229 67.5435 56.5712 64.6049 56.3265C60.3853 56.1004 56.3064 54.7323 52.8039 52.3682C48.6722 49.5646 45.4051 45.6634 43.3705 41.1036C42.1672 38.5088 41.4933 35.7 41.3885 32.8415C41.2837 29.9831 41.75 27.1325 42.7601 24.4565C43.9691 21.5558 46.1457 19.1636 48.9196 17.6867C51.7893 16.1434 55.0241 15.4083 58.279 15.5595C64.7714 15.8555 71.2453 18.8705 77.1642 22.6253C78.644 23.5501 80.0312 24.66 81.4555 25.7513C82.8798 26.8426 84.3225 27.9154 85.6728 29.1177C88.3918 31.5038 91.2218 33.8344 94.0518 36.1465C95.4576 37.3303 97.1223 38.2366 98.6575 39.3094C99.4529 39.7904 100.248 40.4008 101.025 40.7892L103.559 42.0285C107.061 43.5437 110.74 44.6126 114.509 45.2099C122.32 46.4243 130.291 46.1102 137.982 44.2851C141.895 43.3802 145.64 41.8633 149.08 39.7904C152.593 37.7619 155.426 34.7364 157.219 31.0969C158.117 29.2862 158.642 27.3133 158.763 25.2955C158.884 23.2777 158.598 21.2563 157.921 19.3514C156.447 15.4865 153.876 12.1369 150.523 9.71452C147.091 7.32083 143.187 5.68753 139.073 4.92385C134.937 4.06393 130.687 3.89518 126.495 4.42443C118.046 5.80702 109.868 8.51632 102.264 12.4521C94.5143 16.1514 87.023 20.4982 79.2544 24.327C75.4017 26.2791 71.4147 27.9542 67.3239 29.3397C65.2893 30.024 63.2731 30.8009 61.22 31.4298L54.9865 33.0205L51.8236 33.8159L48.6976 34.3523L42.3717 35.3326C40.2816 35.5361 38.1729 35.5731 36.0828 35.7026C33.9926 35.832 31.8655 35.98 29.7569 35.869C25.5731 35.7831 21.4087 35.2749 17.327 34.3523C13.2253 33.5239 9.35492 31.8066 5.98845 29.3212C5.18131 28.6795 4.4267 27.9744 3.73184 27.2125C3.04112 26.451 2.42194 25.6275 1.88215 24.7524C0.750031 22.9655 0.111798 20.9104 0.0324707 18.7965C0.0853732 16.7415 0.597977 14.7245 1.53262 12.8936C2.46727 11.0627 3.80022 9.46447 5.43354 8.21628C6.99466 6.96233 8.76742 5.99764 10.6681 5.36777L12.0369 4.75737L13.4797 4.44293C14.4245 4.21063 15.3817 4.03155 16.3467 3.90652C20.1779 3.56698 24.0389 3.85437 27.7777 4.75737C31.3583 5.67748 34.8496 6.91552 38.2099 8.45674L42.9451 10.9908L45.3127 12.2486L47.5508 13.6359C53.5623 17.3352 59.0928 21.0346 64.7529 24.253C70.4129 27.4715 76.2949 29.8021 82.1214 29.5616C84.8799 29.5926 87.5981 28.898 90.0037 27.5475C92.4092 26.1971 94.4176 24.2381 95.8275 21.8669C97.1091 19.7976 97.8397 17.4347 97.9498 15.0032C98.0598 12.5717 97.5457 10.1525 96.4564 7.97582C95.3814 6.20976 93.9247 4.70671 92.1931 3.57689C90.4616 2.44707 88.4991 1.71913 86.4496 1.44644C84.8107 1.10564 83.1178 1.11912 81.4845 1.48598C79.8511 1.85285 78.3151 2.56461 76.9793 3.57358C76.472 4.01599 76.0608 4.5578 75.7713 5.16548C75.4818 5.77316 75.32 6.43378 75.2961 7.10647C75.3725 8.23344 75.8141 9.30482 76.5538 10.1584C77.5499 11.3311 78.6939 12.3694 79.9573 13.2474L81.252 14.1723Z" fill="white"/>
</svg>
